# xmcd
#
# Track frame offsets:
# 150
# 12317
# 25900
# 40560
# 54910
# 69312
# 82842
# 96280
# 111260
# 125910
# 137320
# 150830
# 165025
# 177712
# 189272
# 204082
# 218020
# 231405
# 245690
# 257990
# 271645
# 285562
# 301100
#
# Disc length: 4225 seconds
#
# Revision: 1
# Processed by: cddbd v1.5.1PL2 Copyright (c) Steve Scherf et al.
# Submitted via: Axialis_AX_CDPlayer 2.6
#
DISCID=24107f17
DTITLE=Various Artist - Hard Times Come Again No More - Volume 2 (complete 
DTITLE=track \nlist)
DYEAR=1998
DGENRE=
TTITLE0=Allen Brothers/Price of Cotton Blues
TTITLE1=Cofer Brothers/Keno the Rent Man
TTITLE2=Barbecue Bob/Bad Time Blues
TTITLE3=Uncle Dave Macon and Sam McGee/Wreck of the Tennessee Gravey Train
TTITLE4=Clayton McMichen and Riley Puckett/The Arkansas Sheik
TTITLE5=Peg Leg Howell and Jim Hill/Away From Home
TTITLE6=Earl Johnson and His Dixie Entertainers/I'm Satisfied
TTITLE7=Carolina Tar Heels/Got the Farm Land Blues
TTITLE8=Bo Carter and Walter Vinson/Times Is Tight Like That
TTITLE9=Fisher Hendley/Weave Room Blues
TTITLE10=W.A. Lindsey and Alvin Conder - Boll Weavil
TTITLE11=Joe Williams - Providence Help The Poor People
TTITLE12=McGhee Brothers - The Tramp
TTITLE13=Dave McCarn - Cotton Mill Colic
TTITLE14=Charlie Jordan - Starvation Blues
TTITLE15=Ernest Stoneman - Broke Down Section Hand
TTITLE16=Jules Allen - Little Old Sod Shanty
TTITLE17=Sleepy John Estes - Down South Blues
TTITLE18=Red Brush Rowdies - No One's Hard Up But Me
TTITLE19=Lee Brothers - Cotton Mill Blues
TTITLE20=Blind Blake - No Dough Blues
TTITLE21=Charlie McCoy and Bob Carter - The Nothern Starvers Are Returning Hom
TTITLE21=e
TTITLE22=Jim Baird - Them Good Old Times Are Coming Back Again
EXTD=
EXTT0=
EXTT1=
EXTT2=
EXTT3=
EXTT4=
EXTT5=
EXTT6=
EXTT7=
EXTT8=
EXTT9=
EXTT10=
EXTT11=
EXTT12=
EXTT13=
EXTT14=
EXTT15=
EXTT16=
EXTT17=
EXTT18=
EXTT19=
EXTT20=
EXTT21=
EXTT22=
PLAYORDER=
